<?xml version="1.0" standalone="no"?>
<!DOCTYPE svg PUBLIC "-//W3C//DTD SVG 20010904//EN"
 "http://www.w3.org/TR/2001/REC-SVG-20010904/DTD/svg10.dtd">
<svg version="1.0" xmlns="http://www.w3.org/2000/svg"
 width="700.000000pt" height="700.000000pt" viewBox="0 0 700.000000 700.000000"
 preserveAspectRatio="xMidYMid meet">
<metadata>
</metadata>
<g transform="translate(0.000000,700.000000) scale(0.100000,-0.100000)"
fill="#000000" stroke="none">
<path d="M3250 6994 c-873 -77 -1629 -423 -2225 -1019 -554 -554 -892 -1245
-1001 -2050 -26 -184 -26 -666 0 -850 109 -805 447 -1496 1001 -2050 554 -554
1245 -892 2050 -1001 184 -26 666 -26 850 0 805 109 1496 447 2050 1001 554
554 892 1245 1001 2050 26 184 26 666 0 850 -109 805 -447 1496 -1001 2050
-553 553 -1252 895 -2045 1000 -119 16 -570 28 -680 19z m-1939 -1804 c92 -11
209 -25 260 -31 63 -8 311 -13 754 -13 446 -1 702 -6 789 -14 71 -7 224 -16
340 -21 228 -9 258 -15 310 -67 51 -52 69 -99 64 -174 -4 -80 -35 -134 -99
-177 -57 -38 -143 -40 -519 -14 -168 12 -401 24 -517 28 l-213 6 0 -29 c0 -82
56 -943 85 -1319 3 -38 12 -239 20 -445 8 -206 20 -428 25 -493 26 -296 -58
-492 -215 -505 -74 -6 -132 17 -184 73 -56 61 -66 105 -50 225 7 61 10 152 6
246 -3 82 -10 282 -16 444 -14 378 -26 574 -61 1005 -16 193 -35 448 -42 567
l-12 217 -242 0 c-358 1 -657 37 -757 93 -22 13 -54 40 -71 61 -26 32 -31 48
-34 107 -4 57 0 78 21 123 27 59 72 99 127 115 49 14 46 14 231 -8z m3866
-130 c47 -21 97 -83 125 -155 9 -24 49 -213 88 -421 39 -209 143 -712 230
-1120 154 -717 162 -747 229 -931 90 -248 111 -319 111 -382 0 -160 -180 -265
-311 -182 -145 91 -255 386 -361 962 -38 209 -16 191 -199 159 -178 -32 -952
-190 -967 -198 -7 -4 -41 -74 -76 -157 -64 -154 -165 -376 -256 -568 -78 -165
-135 -217 -238 -217 -115 0 -222 101 -222 210 0 65 79 267 242 616 l80 174
-16 40 c-21 54 -20 135 3 187 22 47 84 97 143 115 21 6 42 16 47 22 5 6 53 90
107 186 316 569 749 1253 949 1502 139 174 193 203 292 158z"/>
<path d="M4676 3799 c-164 -264 -296 -482 -295 -484 2 -1 82 14 177 35 95 21
266 55 380 76 114 21 209 39 211 40 4 3 -159 785 -168 801 -3 6 -140 -203
-305 -468z"/>
</g>
</svg>
